{
  "accessors": [
    {
      "bufferView": 2,
      "componentType": 5126,
      "count": 13160,
      "max": [
        1.615833044052124,
        1.0836546421051025,
        1.6247968673706055
      ],
      "min": [
        -1.9012064933776855,
        -1.1685105562210083,
        -1.3961721658706665
      ],
      "type": "VEC3"
    },
    {
      "bufferView": 2,
      "byteOffset": 157920,
      "componentType": 5126,
      "count": 13160,
      "max": [
        1.0,
        1.0,
        1.0
      ],
      "min": [
        -1.0,
        -1.0,
        -1.0
      ],
      "type": "VEC3"
    },
    {
      "bufferView": 3,
      "componentType": 5126,
      "count": 13160,
      "max": [
        0.9999279975891113,
        1.0,
        0.9997096061706543,
        1.0
      ],
      "min": [
        -0.9999966621398926,
        -1.0,
        -0.9999775886535645,
        1.0
      ],
      "type": "VEC4"
    },
    {
      "bufferView": 1,
      "componentType": 5126,
      "count": 13160,
      "max": [
        0.984545111656189,
        0.9824591875076294
      ],
      "min": [
        0.015454952605068684,
        0.015454952605068684
      ],
      "type": "VEC2"
    },
    {
      "bufferView": 1,
      "byteOffset": 105280,
      "componentType": 5126,
      "count": 13160,
      "max": [
        0.984545111656189,
        0.9824591875076294
      ],
      "min": [
        0.015454952605068684,
        0.015454952605068684
      ],
      "type": "VEC2"
    },
    {
      "bufferView": 1,
      "byteOffset": 210560,
      "componentType": 5126,
      "count": 13160,
      "max": [
        0.984545111656189,
        0.9824591875076294
      ],
      "min": [
        0.015454952605068684,
        0.015454952605068684
      ],
      "type": "VEC2"
    },
    {
      "bufferView": 0,
      "componentType": 5125,
      "count": 65280,
      "type": "SCALAR"
    }
  ],
  "asset": {
    "extras": {
      "author": "Lucas.Presoto (https://sketchfab.com/Lucas.Presoto)",
      "license": "CC-BY-4.0 (http://creativecommons.org/licenses/by/4.0/)",
      "source": "https://sketchfab.com/3d-models/glucosemolecule-efbe1577816044f297837ad1d218e7ab",
      "title": "GlucoseMolecule"
    },
    "generator": "Sketchfab-10.91.0",
    "version": "2.0"
  },
  "bufferViews": [
    {
      "buffer": 0,
      "byteLength": 261120,
      "name": "floatBufferViews",
      "target": 34963
    },
    {
      "buffer": 0,
      "byteLength": 315840,
      "byteOffset": 261120,
      "byteStride": 8,
      "name": "floatBufferViews",
      "target": 34962
    },
    {
      "buffer": 0,
      "byteLength": 315840,
      "byteOffset": 576960,
      "byteStride": 12,
      "name": "floatBufferViews",
      "target": 34962
    },
    {
      "buffer": 0,
      "byteLength": 210560,
      "byteOffset": 892800,
      "byteStride": 16,
      "name": "floatBufferViews",
      "target": 34962
    }
  ],
  "buffers": [
    {
      "byteLength": 1103360,
      "uri": "scene.bin"
    }
  ],
  "images": [
    {
      "uri": "textures/Material_baseColor.png"
    },
    {
      "uri": "textures/Material_metallicRoughness.png"
    },
    {
      "uri": "textures/Material_normal.png"
    }
  ],
  "materials": [
    {
      "doubleSided": true,
      "name": "Material",
      "normalTexture": {
        "index": 2
      },
      "pbrMetallicRoughness": {
        "baseColorTexture": {
          "index": 0
        },
        "metallicRoughnessTexture": {
          "index": 1
        }
      }
    }
  ],
  "meshes": [
    {
      "name": "Molecule_Material_0",
      "primitives": [
        {
          "attributes": {
            "NORMAL": 1,
            "POSITION": 0,
            "TANGENT": 2,
            "TEXCOORD_0": 3,
            "TEXCOORD_1": 4,
            "TEXCOORD_2": 5
          },
          "indices": 6,
          "material": 0,
          "mode": 4
        }
      ]
    }
  ],
  "nodes": [
    {
      "children": [
        1
      ],
      "matrix": [
        1.0,
        0.0,
        0.0,
        0.0,
        0.0,
        2.220446049250313e-16,
        -1.0,
        0.0,
        0.0,
        1.0,
        2.220446049250313e-16,
        0.0,
        0.0,
        0.0,
        0.0,
        1.0
      ],
      "name": "Sketchfab_model"
    },
    {
      "children": [
        2
      ],
      "matrix": [
        1.0,
        0.0,
        0.0,
        0.0,
        0.0,
        0.0,
        1.0,
        0.0,
        0.0,
        -1.0,
        0.0,
        0.0,
        0.0,
        0.0,
        0.0,
        1.0
      ],
      "name": "c7978ff20a054e1f80e41967fe42499e.fbx"
    },
    {
      "children": [
        3
      ],
      "name": "RootNode"
    },
    {
      "children": [
        4
      ],
      "matrix": [
        100.0,
        0.0,
        0.0,
        0.0,
        0.0,
        -1.629206793918314e-05,
        -99.99999999999868,
        0.0,
        0.0,
        99.99999999999868,
        -1.629206793918314e-05,
        0.0,
        19.70451545715332,
        -12.433205604553223,
        39.57011413574219,
        1.0
      ],
      "name": "Molecule"
    },
    {
      "mesh": 0,
      "name": "Molecule_Material_0"
    }
  ],
  "samplers": [
    {
      "magFilter": 9729,
      "minFilter": 9987,
      "wrapS": 10497,
      "wrapT": 10497
    }
  ],
  "scene": 0,
  "scenes": [
    {
      "name": "Sketchfab_Scene",
      "nodes": [
        0
      ]
    }
  ],
  "textures": [
    {
      "sampler": 0,
      "source": 0
    },
    {
      "sampler": 0,
      "source": 1
    },
    {
      "sampler": 0,
      "source": 2
    }
  ]
}
